<?xml version="1.0" encoding="UTF-8" standalone="no"?><svg xmlns="http://www.w3.org/2000/svg" xmlns:xlink="http://www.w3.org/1999/xlink" clip-rule="evenodd" stroke-miterlimit="4.00" viewBox="0 0 1024 768"><desc>SVG generated by Keynote</desc><defs></defs><g transform="matrix(1.00, 0.00, -0.00, -1.00, 0.0, 768.0)"><g><clipPath id="clip-38"><path d="M 0.0 768.0 L 1024.0 768.0 L 1024.0 0.0 L 0.0 0.0 Z M 0.0 768.0 "></path></clipPath><g clip-path="url(#clip-38)"><image xlink:href="../../7271B8B7-3FC1-4276-9B71-E31342A69E14/assets/50163466EC2834942505D00A94D158E6.jpeg" width="1024.00" height="768.00" transform="matrix(1.00, 0.00, -0.00, -1.00, 0.0, 768.0)"></image></g></g><g opacity="0.30"><g><clipPath id="clip-39"><path d="M 39.0 595.0 L 986.0 595.0 L 986.0 599.0 L 39.0 599.0 Z M 39.0 595.0 "></path></clipPath><g clip-path="url(#clip-39)"><path d="M 0.0 0.0 L 944.7 0.0 " fill="none" stroke="#434343" stroke-width="1.00" transform="matrix(1.00, 0.00, 0.00, -1.00, 40.0, 597.0)"></path></g></g></g><g opacity="0.30"><g><clipPath id="clip-40"><path d="M 39.0 716.0 L 986.0 716.0 L 986.0 720.0 L 39.0 720.0 Z M 39.0 716.0 "></path></clipPath><g clip-path="url(#clip-40)"><path d="M 0.0 0.0 L 944.7 0.0 " fill="none" stroke="#434343" stroke-width="1.00" transform="matrix(1.00, 0.00, 0.00, -1.00, 40.0, 718.0)"></path></g></g></g><g><clipPath id="clip-41"><path d="M 319.0 570.0 L 759.0 570.0 L 759.0 70.0 L 319.0 70.0 Z M 318.5 569.5 "></path></clipPath><g clip-path="url(#clip-41)"><image xlink:href="../../AC0180E9-941B-4581-B409-9AC49D610A4A/assets/EA1EC80C089D3482C2E63155A6B5ADEE.jpeg" width="640.00" height="500.00" transform="matrix(1.00, 0.00, -0.00, -1.00, 219.0, 569.0)"></image></g></g><image xlink:href="../../AC0180E9-941B-4581-B409-9AC49D610A4A/assets/E7FE096B928EE91F06A53D5317732819.png" width="460.00" height="526.00" transform="matrix(1.00, 0.00, -0.00, 1.00, 308.5, 50.5)"></image><text xml:space="preserve" font-family="BodoniSvtyTwoITCTT-Book" font-size="70.0" fill="#D93D2A" transform="matrix(1.00, 0.00, -0.00, -1.00, 231.0, 633.0)">W</text><text xml:space="preserve" font-family="BodoniSvtyTwoITCTT-Book" font-size="70.0" fill="#D93D2A" transform="matrix(1.00, 0.00, -0.00, -1.00, 294.8, 633.0)">h</text><text xml:space="preserve" font-family="BodoniSvtyTwoITCTT-Book" font-size="70.0" fill="#D93D2A" transform="matrix(1.00, 0.00, -0.00, -1.00, 328.2, 633.0)">a</text><text xml:space="preserve" font-family="BodoniSvtyTwoITCTT-Book" font-size="70.0" fill="#D93D2A" transform="matrix(1.00, 0.00, -0.00, -1.00, 356.0, 633.0)">t</text><text xml:space="preserve" font-family="BodoniSvtyTwoITCTT-Book" font-size="70.0" fill="#D93D2A" transform="matrix(1.00, 0.00, -0.00, -1.00, 375.9, 633.0)"> </text><text xml:space="preserve" font-family="BodoniSvtyTwoITCTT-Book" font-size="70.0" fill="#D93D2A" transform="matrix(1.00, 0.00, -0.00, -1.00, 388.9, 633.0)">i</text><text xml:space="preserve" font-family="BodoniSvtyTwoITCTT-Book" font-size="70.0" fill="#D93D2A" transform="matrix(1.00, 0.00, -0.00, -1.00, 406.5, 633.0)">s</text><text xml:space="preserve" font-family="BodoniSvtyTwoITCTT-Book" font-size="70.0" fill="#D93D2A" transform="matrix(1.00, 0.00, -0.00, -1.00, 431.8, 633.0)"> </text><text xml:space="preserve" font-family="BodoniSvtyTwoITCTT-Book" font-size="70.0" fill="#D93D2A" transform="matrix(1.00, 0.00, -0.00, -1.00, 444.9, 633.0)">t</text><text xml:space="preserve" font-family="BodoniSvtyTwoITCTT-Book" font-size="70.0" fill="#D93D2A" transform="matrix(1.00, 0.00, -0.00, -1.00, 464.7, 633.0)">h</text><text xml:space="preserve" font-family="BodoniSvtyTwoITCTT-Book" font-size="70.0" fill="#D93D2A" transform="matrix(1.00, 0.00, -0.00, -1.00, 498.1, 633.0)">e</text><text xml:space="preserve" font-family="BodoniSvtyTwoITCTT-Book" font-size="70.0" fill="#D93D2A" transform="matrix(1.00, 0.00, -0.00, -1.00, 528.2, 633.0)"> </text><text xml:space="preserve" font-family="BodoniSvtyTwoITCTT-Book" font-size="70.0" fill="#D93D2A" transform="matrix(1.00, 0.00, -0.00, -1.00, 541.2, 633.0)">P</text><text xml:space="preserve" font-family="BodoniSvtyTwoITCTT-Book" font-size="70.0" fill="#D93D2A" transform="matrix(1.00, 0.00, -0.00, -1.00, 576.5, 633.0)">r</text><text xml:space="preserve" font-family="BodoniSvtyTwoITCTT-Book" font-size="70.0" fill="#D93D2A" transform="matrix(1.00, 0.00, -0.00, -1.00, 600.2, 633.0)">o</text><text xml:space="preserve" font-family="BodoniSvtyTwoITCTT-Book" font-size="70.0" fill="#D93D2A" transform="matrix(1.00, 0.00, -0.00, -1.00, 633.8, 633.0)">b</text><text xml:space="preserve" font-family="BodoniSvtyTwoITCTT-Book" font-size="70.0" fill="#D93D2A" transform="matrix(1.00, 0.00, -0.00, -1.00, 667.5, 633.0)">l</text><text xml:space="preserve" font-family="BodoniSvtyTwoITCTT-Book" font-size="70.0" fill="#D93D2A" transform="matrix(1.00, 0.00, -0.00, -1.00, 683.9, 633.0)">e</text><text xml:space="preserve" font-family="BodoniSvtyTwoITCTT-Book" font-size="70.0" fill="#D93D2A" transform="matrix(1.00, 0.00, -0.00, -1.00, 714.0, 633.0)">m</text><text xml:space="preserve" font-family="BodoniSvtyTwoITCTT-Book" font-size="70.0" fill="#D93D2A" transform="matrix(1.00, 0.00, -0.00, -1.00, 763.2, 633.0)">?</text><text xml:space="preserve" font-family="ZapfDingbatsITC" font-size="19.5" fill="#919191" transform="matrix(1.00, 0.00, -0.00, -1.00, 44.0, 474.9)">❖</text><text xml:space="preserve" font-family="Palatino-Roman" font-size="30.0" fill="#414040" transform="matrix(1.00, 0.00, -0.00, -1.00, 75.0, 469.0)">s</text><text xml:space="preserve" font-family="Palatino-Roman" font-size="30.0" fill="#414040" transform="matrix(1.00, 0.00, -0.00, -1.00, 87.7, 469.0)">p</text><text xml:space="preserve" font-family="Palatino-Roman" font-size="30.0" fill="#414040" transform="matrix(1.00, 0.00, -0.00, -1.00, 105.7, 469.0)">a</text><text xml:space="preserve" font-family="Palatino-Roman" font-size="30.0" fill="#414040" transform="matrix(1.00, 0.00, -0.00, -1.00, 120.7, 469.0)">r</text><text xml:space="preserve" font-family="Palatino-Roman" font-size="30.0" fill="#414040" transform="matrix(1.00, 0.00, -0.00, -1.00, 132.6, 469.0)">s</text><text xml:space="preserve" font-family="Palatino-Roman" font-size="30.0" fill="#414040" transform="matrix(1.00, 0.00, -0.00, -1.00, 145.3, 469.0)">e</text><text xml:space="preserve" font-family="Palatino-Roman" font-size="30.0" fill="#414040" transform="matrix(1.00, 0.00, -0.00, -1.00, 159.7, 469.0)"> </text><text xml:space="preserve" font-family="Palatino-Roman" font-size="30.0" fill="#414040" transform="matrix(1.00, 0.00, -0.00, -1.00, 167.2, 469.0)">a</text><text xml:space="preserve" font-family="Palatino-Roman" font-size="30.0" fill="#414040" transform="matrix(1.00, 0.00, -0.00, -1.00, 182.2, 469.0)">n</text><text xml:space="preserve" font-family="Palatino-Roman" font-size="30.0" fill="#414040" transform="matrix(1.00, 0.00, -0.00, -1.00, 199.6, 469.0)">d</text><text xml:space="preserve" font-family="Palatino-Roman" font-size="30.0" fill="#414040" transform="matrix(1.00, 0.00, -0.00, -1.00, 218.0, 469.0)"> </text><text xml:space="preserve" font-family="Palatino-Roman" font-size="30.0" fill="#414040" transform="matrix(1.00, 0.00, -0.00, -1.00, 75.0, 429.0)">t</text><text xml:space="preserve" font-family="Palatino-Roman" font-size="30.0" fill="#414040" transform="matrix(1.00, 0.00, -0.00, -1.00, 84.8, 429.0)">i</text><text xml:space="preserve" font-family="Palatino-Roman" font-size="30.0" fill="#414040" transform="matrix(1.00, 0.00, -0.00, -1.00, 93.5, 429.0)">m</text><text xml:space="preserve" font-family="Palatino-Roman" font-size="30.0" fill="#414040" transform="matrix(1.00, 0.00, -0.00, -1.00, 120.0, 429.0)">e</text><text xml:space="preserve" font-family="Palatino-Roman" font-size="30.0" fill="#414040" transform="matrix(1.00, 0.00, -0.00, -1.00, 134.4, 429.0)">-</text><text xml:space="preserve" font-family="Palatino-Roman" font-size="30.0" fill="#414040" transform="matrix(1.00, 0.00, -0.00, -1.00, 144.4, 429.0)">d</text><text xml:space="preserve" font-family="Palatino-Roman" font-size="30.0" fill="#414040" transform="matrix(1.00, 0.00, -0.00, -1.00, 162.7, 429.0)">e</text><text xml:space="preserve" font-family="Palatino-Roman" font-size="30.0" fill="#414040" transform="matrix(1.00, 0.00, -0.00, -1.00, 177.0, 429.0)">l</text><text xml:space="preserve" font-family="Palatino-Roman" font-size="30.0" fill="#414040" transform="matrix(1.00, 0.00, -0.00, -1.00, 185.8, 429.0)">a</text><text xml:space="preserve" font-family="Palatino-Roman" font-size="30.0" fill="#414040" transform="matrix(1.00, 0.00, -0.00, -1.00, 200.8, 429.0)">y</text><text xml:space="preserve" font-family="Palatino-Roman" font-size="30.0" fill="#414040" transform="matrix(1.00, 0.00, -0.00, -1.00, 217.5, 429.0)">e</text><text xml:space="preserve" font-family="Palatino-Roman" font-size="30.0" fill="#414040" transform="matrix(1.00, 0.00, -0.00, -1.00, 231.8, 429.0)">d</text><text xml:space="preserve" font-family="Palatino-Roman" font-size="30.0" fill="#414040" transform="matrix(1.00, 0.00, -0.00, -1.00, 250.2, 429.0)"> </text><text xml:space="preserve" font-family="Palatino-Roman" font-size="30.0" fill="#414040" transform="matrix(1.00, 0.00, -0.00, -1.00, 75.0, 389.0)">l</text><text xml:space="preserve" font-family="Palatino-Roman" font-size="30.0" fill="#414040" transform="matrix(1.00, 0.00, -0.00, -1.00, 83.7, 389.0)">a</text><text xml:space="preserve" font-family="Palatino-Roman" font-size="30.0" fill="#414040" transform="matrix(1.00, 0.00, -0.00, -1.00, 98.7, 389.0)">b</text><text xml:space="preserve" font-family="Palatino-Roman" font-size="30.0" fill="#414040" transform="matrix(1.00, 0.00, -0.00, -1.00, 115.3, 389.0)">e</text><text xml:space="preserve" font-family="Palatino-Roman" font-size="30.0" fill="#414040" transform="matrix(1.00, 0.00, -0.00, -1.00, 129.7, 389.0)">l</text><text xml:space="preserve" font-family="Palatino-Roman" font-size="30.0" fill="#414040" transform="matrix(1.00, 0.00, -0.00, -1.00, 138.4, 389.0)">s</text><text xml:space="preserve" font-family="Palatino-Roman" font-size="30.0" fill="#414040" transform="matrix(1.00, 0.00, -0.00, -1.00, 151.1, 389.0)"> </text><text xml:space="preserve" font-family="Palatino-Roman" font-size="22.5" fill="#414040" transform="matrix(1.00, 0.00, -0.00, -1.00, 81.0, 334.2)">•</text><text xml:space="preserve" font-family="Palatino-Roman" font-size="30.0" fill="#414040" transform="matrix(1.00, 0.00, -0.00, -1.00, 112.0, 331.0)">c</text><text xml:space="preserve" font-family="Palatino-Roman" font-size="30.0" fill="#414040" transform="matrix(1.00, 0.00, -0.00, -1.00, 125.3, 331.0)">r</text><text xml:space="preserve" font-family="Palatino-Roman" font-size="30.0" fill="#414040" transform="matrix(1.00, 0.00, -0.00, -1.00, 136.6, 331.0)">e</text><text xml:space="preserve" font-family="Palatino-Roman" font-size="30.0" fill="#414040" transform="matrix(1.00, 0.00, -0.00, -1.00, 151.0, 331.0)">d</text><text xml:space="preserve" font-family="Palatino-Roman" font-size="30.0" fill="#414040" transform="matrix(1.00, 0.00, -0.00, -1.00, 169.3, 331.0)">i</text><text xml:space="preserve" font-family="Palatino-Roman" font-size="30.0" fill="#414040" transform="matrix(1.00, 0.00, -0.00, -1.00, 178.1, 331.0)">t</text><text xml:space="preserve" font-family="Palatino-Roman" font-size="30.0" fill="#414040" transform="matrix(1.00, 0.00, -0.00, -1.00, 187.8, 331.0)"> </text><text xml:space="preserve" font-family="Palatino-Roman" font-size="30.0" fill="#414040" transform="matrix(1.00, 0.00, -0.00, -1.00, 112.0, 291.0)">a</text><text xml:space="preserve" font-family="Palatino-Roman" font-size="30.0" fill="#414040" transform="matrix(1.00, 0.00, -0.00, -1.00, 127.0, 291.0)">s</text><text xml:space="preserve" font-family="Palatino-Roman" font-size="30.0" fill="#414040" transform="matrix(1.00, 0.00, -0.00, -1.00, 139.7, 291.0)">s</text><text xml:space="preserve" font-family="Palatino-Roman" font-size="30.0" fill="#414040" transform="matrix(1.00, 0.00, -0.00, -1.00, 152.4, 291.0)">i</text><text xml:space="preserve" font-family="Palatino-Roman" font-size="30.0" fill="#414040" transform="matrix(1.00, 0.00, -0.00, -1.00, 161.1, 291.0)">g</text><text xml:space="preserve" font-family="Palatino-Roman" font-size="30.0" fill="#414040" transform="matrix(1.00, 0.00, -0.00, -1.00, 177.8, 291.0)">n</text><text xml:space="preserve" font-family="Palatino-Roman" font-size="30.0" fill="#414040" transform="matrix(1.00, 0.00, -0.00, -1.00, 195.3, 291.0)">m</text><text xml:space="preserve" font-family="Palatino-Roman" font-size="30.0" fill="#414040" transform="matrix(1.00, 0.00, -0.00, -1.00, 221.8, 291.0)">e</text><text xml:space="preserve" font-family="Palatino-Roman" font-size="30.0" fill="#414040" transform="matrix(1.00, 0.00, -0.00, -1.00, 236.1, 291.0)">n</text><text xml:space="preserve" font-family="Palatino-Roman" font-size="30.0" fill="#414040" transform="matrix(1.00, 0.00, -0.00, -1.00, 253.6, 291.0)">t</text><text xml:space="preserve" font-family="Palatino-Roman" font-size="30.0" fill="#414040" transform="matrix(1.00, 0.00, -0.00, -1.00, 263.4, 291.0)"> </text><text xml:space="preserve" font-family="Palatino-Roman" font-size="30.0" fill="#414040" transform="matrix(1.00, 0.00, -0.00, -1.00, 112.0, 251.0)">p</text><text xml:space="preserve" font-family="Palatino-Roman" font-size="30.0" fill="#414040" transform="matrix(1.00, 0.00, -0.00, -1.00, 130.0, 251.0)">r</text><text xml:space="preserve" font-family="Palatino-Roman" font-size="30.0" fill="#414040" transform="matrix(1.00, 0.00, -0.00, -1.00, 141.4, 251.0)">o</text><text xml:space="preserve" font-family="Palatino-Roman" font-size="30.0" fill="#414040" transform="matrix(1.00, 0.00, -0.00, -1.00, 157.7, 251.0)">b</text><text xml:space="preserve" font-family="Palatino-Roman" font-size="30.0" fill="#414040" transform="matrix(1.00, 0.00, -0.00, -1.00, 174.3, 251.0)">l</text><text xml:space="preserve" font-family="Palatino-Roman" font-size="30.0" fill="#414040" transform="matrix(1.00, 0.00, -0.00, -1.00, 183.1, 251.0)">e</text><text xml:space="preserve" font-family="Palatino-Roman" font-size="30.0" fill="#414040" transform="matrix(1.00, 0.00, -0.00, -1.00, 197.4, 251.0)">m</text><text xml:space="preserve" font-family="Palatino-Roman" font-size="22.5" fill="#414040" transform="matrix(1.00, 0.00, -0.00, -1.00, 81.0, 196.2)">•</text><text xml:space="preserve" font-family="Palatino-Roman" font-size="30.0" fill="#414040" transform="matrix(1.00, 0.00, -0.00, -1.00, 112.0, 193.0)">e</text><text xml:space="preserve" font-family="Palatino-Roman" font-size="30.0" fill="#414040" transform="matrix(1.00, 0.00, -0.00, -1.00, 126.4, 193.0)">x</text><text xml:space="preserve" font-family="Palatino-Roman" font-size="30.0" fill="#414040" transform="matrix(1.00, 0.00, -0.00, -1.00, 141.9, 193.0)">p</text><text xml:space="preserve" font-family="Palatino-Roman" font-size="30.0" fill="#414040" transform="matrix(1.00, 0.00, -0.00, -1.00, 159.9, 193.0)">l</text><text xml:space="preserve" font-family="Palatino-Roman" font-size="30.0" fill="#414040" transform="matrix(1.00, 0.00, -0.00, -1.00, 168.6, 193.0)">o</text><text xml:space="preserve" font-family="Palatino-Roman" font-size="30.0" fill="#414040" transform="matrix(1.00, 0.00, -0.00, -1.00, 185.0, 193.0)">r</text><text xml:space="preserve" font-family="Palatino-Roman" font-size="30.0" fill="#414040" transform="matrix(1.00, 0.00, -0.00, -1.00, 196.3, 193.0)">e</text><text xml:space="preserve" font-family="Palatino-Roman" font-size="30.0" fill="#414040" transform="matrix(1.00, 0.00, -0.00, -1.00, 210.7, 193.0)">-</text><text xml:space="preserve" font-family="Palatino-Roman" font-size="30.0" fill="#414040" transform="matrix(1.00, 0.00, -0.00, -1.00, 112.0, 153.0)">e</text><text xml:space="preserve" font-family="Palatino-Roman" font-size="30.0" fill="#414040" transform="matrix(1.00, 0.00, -0.00, -1.00, 126.4, 153.0)">x</text><text xml:space="preserve" font-family="Palatino-Roman" font-size="30.0" fill="#414040" transform="matrix(1.00, 0.00, -0.00, -1.00, 141.9, 153.0)">p</text><text xml:space="preserve" font-family="Palatino-Roman" font-size="30.0" fill="#414040" transform="matrix(1.00, 0.00, -0.00, -1.00, 159.9, 153.0)">l</text><text xml:space="preserve" font-family="Palatino-Roman" font-size="30.0" fill="#414040" transform="matrix(1.00, 0.00, -0.00, -1.00, 168.6, 153.0)">o</text><text xml:space="preserve" font-family="Palatino-Roman" font-size="30.0" fill="#414040" transform="matrix(1.00, 0.00, -0.00, -1.00, 185.0, 153.0)">i</text><text xml:space="preserve" font-family="Palatino-Roman" font-size="30.0" fill="#414040" transform="matrix(1.00, 0.00, -0.00, -1.00, 193.7, 153.0)">t</text><text xml:space="preserve" font-family="Palatino-Roman" font-size="30.0" fill="#414040" transform="matrix(1.00, 0.00, -0.00, -1.00, 203.5, 153.0)"> </text><text xml:space="preserve" font-family="Palatino-Roman" font-size="30.0" fill="#414040" transform="matrix(1.00, 0.00, -0.00, -1.00, 112.0, 113.0)">d</text><text xml:space="preserve" font-family="Palatino-Roman" font-size="30.0" fill="#414040" transform="matrix(1.00, 0.00, -0.00, -1.00, 130.3, 113.0)">i</text><text xml:space="preserve" font-family="Palatino-Roman" font-size="30.0" fill="#414040" transform="matrix(1.00, 0.00, -0.00, -1.00, 139.0, 113.0)">l</text><text xml:space="preserve" font-family="Palatino-Roman" font-size="30.0" fill="#414040" transform="matrix(1.00, 0.00, -0.00, -1.00, 147.8, 113.0)">e</text><text xml:space="preserve" font-family="Palatino-Roman" font-size="30.0" fill="#414040" transform="matrix(1.00, 0.00, -0.00, -1.00, 162.2, 113.0)">m</text><text xml:space="preserve" font-family="Palatino-Roman" font-size="30.0" fill="#414040" transform="matrix(1.00, 0.00, -0.00, -1.00, 188.6, 113.0)">m</text><text xml:space="preserve" font-family="Palatino-Roman" font-size="30.0" fill="#414040" transform="matrix(1.00, 0.00, -0.00, -1.00, 215.1, 113.0)">a</text><image xlink:href="../../AC0180E9-941B-4581-B409-9AC49D610A4A/assets/AEA6D742A2B1D8A33B21BCDE7744CAB2.jpeg" width="233.00" height="502.00" transform="matrix(1.02, 0.00, -0.00, -1.02, 772.0, 574.0)"></image></g></svg>